PathFileType	4	(X/Y/Z)	C:\Users\Basilio\Documents\Thesis Gigler\squatting_fais\c3dfiles\036\SJ_pre3\markers_experimental.trc
DataRate	CameraRate	NumFrames	NumMarkers	Units	OrigDataRate	OrigDataStartFrame	OrigNumFrames
200.000000	200.000000	4	61	mm	200.000000	1049	2099
Frame#	Time	FHD			LBHD			RBHD			C7			T10			CLAV			LSHO			LUUPA			LMUPA			LDUPA			LLEP			LMEP			LRAD			LUL			LRFIN			RSHO			RUPA1			RMUPA			RDUPA			RLEP			RMEP			RRAD			RUL			RUFIN			LASI			RASI			USACR			LSACR			RSACR			LTHI1			LTHI2			LTHI3			LTHI4			LLFC			LMFC			LTIB1			LTIB2			LTIB3			LTIB4			LLMAL			LMMAL			LHEE			LMT1			LMT2			LMT5			RTHI			RTHI2			RTHI3			RTHI4			RLFC			RMFC			RTIB1			RTIB2			RTIB3			RTIB4			RLMAL			RMMAL			RHEE			RMT1			RMT2			RMT5			
		X1	Y1	Z1	X2	Y2	Z2	X3	Y3	Z3	X4	Y4	Z4	X5	Y5	Z5	X6	Y6	Z6	X7	Y7	Z7	X8	Y8	Z8	X9	Y9	Z9	X10	Y10	Z10	X11	Y11	Z11	X12	Y12	Z12	X13	Y13	Z13	X14	Y14	Z14	X15	Y15	Z15	X16	Y16	Z16	X17	Y17	Z17	X18	Y18	Z18	X19	Y19	Z19	X20	Y20	Z20	X21	Y21	Z21	X22	Y22	Z22	X23	Y23	Z23	X24	Y24	Z24	X25	Y25	Z25	X26	Y26	Z26	X27	Y27	Z27	X28	Y28	Z28	X29	Y29	Z29	X30	Y30	Z30	X31	Y31	Z31	X32	Y32	Z32	X33	Y33	Z33	X34	Y34	Z34	X35	Y35	Z35	X36	Y36	Z36	X37	Y37	Z37	X38	Y38	Z38	X39	Y39	Z39	X40	Y40	Z40	X41	Y41	Z41	X42	Y42	Z42	X43	Y43	Z43	X44	Y44	Z44	X45	Y45	Z45	X46	Y46	Z46	X47	Y47	Z47	X48	Y48	Z48	X49	Y49	Z49	X50	Y50	Z50	X51	Y51	Z51	X52	Y52	Z52	X53	Y53	Z53	X54	Y54	Z54	X55	Y55	Z55	X56	Y56	Z56	X57	Y57	Z57	X58	Y58	Z58	X59	Y59	Z59	X60	Y60	Z60	X61	Y61	Z61	

1050	5.245	90.42518615722658	1085.617919921875	-951.7688598632815	-80.58969879150392	1034.214721679688	-1004.606140136719	-24.30785560607911	1056.804931640625	-865.0671386718752	nan	nan	nan	-339.1799621582032	825.964538574219	-947.6221313476565	-26.1234359741211	844.543395996094	-932.606628417969	-14.93310832977295	899.2600708007815	-1069.055908203125	-103.2643127441407	867.2185668945315	-1219.622436523438	-117.2077102661133	819.1550903320315	-1223.768676757813	-148.1268310546875	843.9035644531252	-1269.31005859375	-196.1159210205079	816.402282714844	-1294.7421875	-233.2568054199219	873.3174438476565	-1283.603881835938	-358.8379821777344	664.9007568359376	-1220.410278320313	-377.9989929199219	718.7196655273439	-1178.762084960938	-359.7642517089844	678.7070312500001	-1132.201293945313	-29.25381469726563	917.445739746094	-801.150085449219	-114.8769683837891	888.820007324219	-664.8000488281251	-117.756820678711	839.126647949219	-661.2123413085939	-152.3274993896485	854.9505004882815	-615.4992675781251	-207.9188995361329	812.3049316406252	-582.6723022460939	-264.3681335449219	859.9324951171877	-603.3550415039064	-370.7637023925782	706.5674438476564	-717.6783447265626	-348.5546875000001	651.9537353515626	-684.2208251953126	-360.0180358886719	672.9645996093751	-767.6651611328126	nan	nan	nan	nan	nan	nan	-435.3177795410157	782.4130859375002	-953.6849365234377	-467.3084716796876	773.968688964844	-981.0762329101565	-460.426239013672	775.6091918945315	-925.2742309570315	-416.2959594726564	596.6351928710939	-1177.923217773438	-340.2145080566407	566.9395141601564	-1179.497192382813	-313.5029907226563	598.8200073242189	-1156.255737304688	-319.3544616699219	514.9439697265626	-1186.844848632813	-217.5269012451172	413.7549133300782	-1193.038208007813	-181.5649566650391	382.2281494140626	-1044.499267578125	-179.4075317382813	248.437484741211	-1115.100463867188	-221.9471893310547	219.7658386230469	-1185.229736328125	-200.7036895751954	206.9228515625001	-1147.537109375	-237.7378234863282	136.2384796142578	-1116.197509765625	-318.8688964843751	81.55598449707033	-1170.2607421875	-297.6885681152344	82.92181396484376	-1086.837036132813	-375.7720642089844	58.46203231811525	-1131.995971679688	-185.562240600586	53.14892578125001	-1109.823120117188	-174.9829254150391	55.27485275268556	-1158.095336914063	-217.7752227783204	34.83198165893555	-1205.541015625	-442.5246887207032	515.2426147460939	-715.4241333007814	-378.2563781738282	513.6259155273439	-696.5671386718751	-359.7823486328126	540.6922607421876	-696.0926513671876	-326.3256530761719	449.8714294433595	-693.7832031250001	-224.1712036132813	402.480682373047	-677.7098999023439	-173.9107360839844	413.7310485839845	-818.0249633789065	-193.5014038085938	256.5541992187501	-726.0332641601564	-288.8915710449219	206.5036010742188	-689.4027709960939	-249.3140106201172	192.6240844726563	-710.2026977539064	-255.592269897461	145.8686828613282	-747.0571289062501	-364.7463684082032	82.93901824951173	-738.1976318359376	-320.8224182128907	82.20901489257814	-810.8753662109377	-407.1192626953126	57.03529357910158	-781.000915527344	-210.6032104492188	50.56601715087892	-762.8500976562501	-219.150375366211	57.94180297851564	-713.8023681640626	-264.8300170898438	35.71151351928712	-674.7744750976564	
1051	5.25	90.57263946533205	1085.483642578125	-951.7880859375002	-80.45224761962892	1034.142700195313	-1004.680541992188	-24.14231872558594	1056.771362304688	-865.110534667969	nan	nan	nan	-338.9018554687501	825.9576416015627	-947.646667480469	-25.87766838073731	844.4997558593752	-932.632995605469	-14.70031833648682	899.3076782226565	-1069.1064453125	-103.101547241211	867.1758422851565	-1219.615844726563	-116.9422988891602	819.1508789062502	-1223.790405273438	-148.2056427001953	844.1777954101565	-1269.268310546875	-196.0884857177735	816.4006347656252	-1294.75341796875	-233.1312255859376	873.368835449219	-1283.635375976563	-358.7514343261719	664.8886718750001	-1220.44677734375	-377.8752746582032	718.8046264648439	-1178.788330078125	-359.6770935058594	678.7791748046876	-1132.208618164063	-29.15194129943848	917.398132324219	-801.1232910156252	-114.7919235229492	888.8110961914065	-664.7967529296876	-117.6077423095703	839.1441650390627	-661.2362670898439	-152.1847076416016	855.0288085937502	-615.5313720703126	-207.7883300781251	812.3032836914065	-582.6899414062501	-264.2412109375001	859.954772949219	-603.3966674804689	-370.7200012207032	706.6471557617189	-717.7000732421876	-348.4372558593751	652.0793457031251	-684.1768798828126	-359.8499450683594	673.0045166015626	-767.6543579101564	nan	nan	nan	nan	nan	nan	-435.1368408203126	782.449890136719	-953.6716308593752	-467.1450500488282	774.0388793945315	-981.054138183594	-460.2935180664064	775.6736450195315	-925.4175415039065	-416.2499084472657	596.6525268554689	-1177.939331054688	-340.2200622558594	566.9895629882814	-1179.52978515625	-313.4319458007813	598.8945922851564	-1156.276611328125	-319.2375488281251	514.9581298828126	-1186.893432617188	-217.4402618408204	413.7933349609376	-1193.076171875	-181.4914245605469	382.2477722167969	-1044.47265625	-179.4886016845703	248.6168212890626	-1115.116088867188	-221.9740753173829	219.8042755126954	-1185.224853515625	-200.6693572998047	206.9060668945313	-1147.578002929688	-237.716537475586	136.2481079101563	-1116.214965820313	-318.8856506347657	81.58638763427736	-1170.237915039063	-297.6219177246094	82.85501861572267	-1086.876586914063	-375.7908325195313	58.48591995239259	-1131.958129882813	-185.58740234375	53.13542556762697	-1109.831176757813	-174.9156951904297	55.24684906005861	-1158.10400390625	-217.8810119628907	34.76754379272462	-1205.528564453125	-442.4529724121095	515.2958374023439	-715.4010620117189	-378.1751098632813	513.6436767578126	-696.5953979492189	-359.7433776855469	540.7177124023439	-696.0643920898439	-326.3126220703126	449.9199218750001	-693.8193359375001	-224.1312408447266	402.4586486816407	-677.7186279296876	-173.9131927490235	413.7368469238282	-818.0249633789065	-193.5314025878907	256.5573120117188	-726.0218505859376	-288.8401489257813	206.4942626953126	-689.4055175781251	-249.3036651611329	192.6155853271485	-710.2051391601564	-255.6060485839844	145.8321685791016	-747.0061035156251	-364.7824096679688	82.95050048828126	-738.1971435546876	-320.8802490234376	82.19226074218751	-810.9169921875002	-407.0914916992189	57.0892791748047	-781.0188598632815	-210.5647277832032	50.52901077270509	-762.8085327148439	-219.2332153320313	57.93394851684572	-713.8471069335939	-264.8226013183594	35.72098541259766	-674.7659301757814	
1052	5.255	90.79077911376955	1085.427612304688	-951.7642822265627	-80.25546264648439	1034.116821289063	-1004.642456054688	-23.81483840942383	1056.738403320313	-865.145202636719	nan	nan	nan	-338.8393554687501	826.1094360351565	-947.619567871094	-25.71164321899415	844.4489746093752	-932.6668701171877	-14.50153350830078	899.2796630859377	-1069.066772460938	-102.9261245727539	867.1214599609377	-1219.616577148438	-116.8145523071289	819.0979003906252	-1223.807861328125	-147.8997650146485	844.1516723632815	-1269.214965820313	-195.9346160888672	816.4414062500002	-1294.744384765625	-232.9408874511719	873.3731079101565	-1283.605102539063	-358.6856689453126	664.9671020507814	-1220.433349609375	-377.7204895019532	718.7926635742189	-1178.8125	-359.5498352050782	678.8299560546876	-1132.228759765625	-29.09086227416993	917.3376464843752	-801.071228027344	-114.4636306762696	888.8065185546877	-664.9017944335939	-117.2413864135742	839.0603027343752	-661.2015380859376	-152.1506500244141	855.021911621094	-615.5386352539064	-207.7189025878907	812.3558349609377	-582.5398559570314	-264.1456909179688	859.9636840820315	-603.4174804687501	-370.5391540527344	706.7467651367189	-717.7521972656251	-348.6183776855469	652.0510253906251	-684.6829833984376	-359.8606872558594	673.0007324218751	-767.6613769531251	nan	nan	nan	nan	nan	nan	-434.8342285156251	782.4888916015627	-953.715759277344	-467.0289611816407	774.1134033203127	-981.067077636719	-466.3708801269532	777.6416015625002	-924.845397949219	-416.1818237304689	596.7327270507814	-1177.99365234375	-340.1959838867188	567.0338134765626	-1179.526123046875	-313.3537902832032	598.8908081054689	-1156.240234375	-319.2196350097657	515.0119018554689	-1186.889282226563	-217.4617919921876	413.7677307128907	-1193.0908203125	-181.2793884277344	382.3228454589844	-1044.456665039063	-179.3922882080078	248.3930206298829	-1115.137939453125	-221.9514617919922	219.7751007080079	-1185.229736328125	-200.7062683105469	206.8787078857422	-1147.586547851563	-237.7286224365235	136.1814727783203	-1116.193237304688	-318.9524536132813	81.55565643310548	-1170.241333007813	-297.6488037109376	82.88521575927736	-1086.857788085938	-375.7775573730469	58.4585647583008	-1131.989990234375	-185.5499420166016	53.14134979248048	-1109.771850585938	-174.902328491211	55.22845840454103	-1158.108520507813	-217.5096130371094	34.52312469482423	-1205.571044921875	-442.4355773925782	515.3389892578126	-715.4282836914064	-378.1796264648438	513.7454223632814	-696.5942382812501	-359.6945800781251	540.7570800781251	-696.0859375000001	-326.2488708496094	449.963104248047	-693.7851562500001	-224.0640411376954	402.5036621093751	-677.7539062500001	-173.9095916748047	413.7283630371095	-818.0249023437502	-193.4784088134766	256.5351257324219	-726.0809326171876	-288.8227233886719	206.4833679199219	-689.4235839843751	-249.3003082275391	192.6170196533204	-710.1948242187501	-255.6052551269532	145.8309326171875	-747.0058593750001	-364.7737426757813	82.94784545898439	-738.1578369140626	-320.8703918457032	82.19637298583986	-810.9394531250002	-407.1299133300782	57.05763626098634	-781.0068969726565	-210.5692596435547	50.53822326660158	-762.8066406250001	-219.2566223144532	58.00801086425783	-713.8509521484376	-264.8195495605469	35.71562576293946	-674.7908325195314	
1053	5.26	90.89583587646486	1085.349487304688	-951.7063598632815	-80.06652069091798	1034.039916992188	-1004.652404785156	-23.72422981262207	1056.725952148438	-865.1656494140627	nan	nan	nan	-338.6586608886719	826.1401367187502	-947.6521606445315	-25.57736587524415	844.4024047851565	-932.6253662109377	-14.24210453033448	899.1003417968752	-1069.123168945313	-102.7807235717774	867.0694580078127	-1219.609497070313	-116.6956100463867	819.0468750000002	-1223.710205078125	-147.7070617675782	844.1287231445315	-1269.203369140625	-195.7301635742188	816.3835449218752	-1294.734497070313	-232.7195892333985	873.378601074219	-1283.612182617188	-358.5440979003907	665.0261230468751	-1220.44873046875	-377.5208740234376	718.8619995117189	-1178.84912109375	-359.4234924316407	678.8530883789064	-1132.223266601563	-29.01400756835938	917.3111572265627	-801.0377197265627	-114.3350296020508	888.8474731445315	-664.8286132812501	-117.4905471801758	838.8979492187502	-661.6226196289064	-152.0746154785157	855.078063964844	-615.5354614257814	-207.5623168945313	812.421813964844	-582.4316406250001	-263.8938903808594	860.0377197265627	-603.4672851562501	-370.4730224609376	706.8027954101564	-717.7804565429689	-348.5313110351563	652.0824584960939	-684.7043457031251	-359.8222656250001	673.0297851562501	-767.6632690429689	nan	nan	nan	nan	nan	nan	-434.6345520019532	782.5756835937502	-953.740661621094	-468.7004699707032	774.580017089844	-980.607360839844	-466.198211669922	777.747253417969	-924.8381347656252	-416.0004882812501	596.7584228515626	-1177.977416992188	-340.1510009765626	567.1005249023439	-1179.548095703125	-313.3309631347657	598.9068603515626	-1156.26220703125	-319.1260986328126	514.9739990234376	-1186.890625	-217.3106384277344	413.7577514648439	-1193.104125976563	-181.2921295166016	382.3459167480469	-1044.461059570313	-179.3175506591797	248.3516845703126	-1115.135864257813	-221.9524688720704	219.7772521972657	-1185.229614257813	-200.7007141113282	206.8700103759766	-1147.570068359375	-237.576644897461	136.1968841552735	-1116.203979492188	-318.9113464355469	81.54074859619142	-1170.235961914063	-297.5987854003907	82.8224563598633	-1086.8955078125	-375.6942138671876	58.45359039306642	-1132.016235351563	-185.5838470458985	53.18482971191408	-1109.800903320313	-174.8255920410157	55.20971298217775	-1158.13330078125	-217.4435729980469	34.5453109741211	-1205.558349609375	-442.3725891113282	515.4050292968751	-715.4201660156251	-378.1236877441407	513.7822875976564	-696.5779418945314	-359.6199340820313	540.7952880859376	-696.0562744140626	-326.1672363281251	449.9492797851564	-693.7348022460939	-223.9791870117188	402.5084838867189	-677.8033447265626	-173.9005126953125	413.6318664550782	-818.0289306640627	-193.4363861083985	256.5532836914063	-726.0862426757814	-288.8285217285157	206.486312866211	-689.4505615234376	-249.3156280517579	192.581527709961	-710.2720947265626	-255.5584106445313	145.8502349853516	-747.0309448242189	-364.7890930175782	82.94174194335939	-738.2406616210939	-320.8739013671876	82.23744201660158	-810.9324951171877	-407.0820617675782	57.02655029296876	-781.0083007812502	-210.5771636962891	50.509334564209	-762.8142700195314	-219.1836547851563	57.97867584228517	-713.8444213867189	-264.8522644042969	35.72155761718751	-674.7749023437501	
